<?xml version="1.0" encoding="UTF-8" standalone="no"?>
<svg width="274px" height="199px" viewBox="0 0 274 199" version="1.1" xmlns="http://www.w3.org/2000/svg" xmlns:xlink="http://www.w3.org/1999/xlink" xmlns:sketch="http://www.bohemiancoding.com/sketch/ns">
    <!-- Generator: Sketch 3.0.4 (8053) - http://www.bohemiancoding.com/sketch -->
    <title>Praha</title>
    <desc>Created with Sketch.</desc>
    <defs></defs>
    <g id="Page-1" stroke="none" stroke-width="1" fill="none" fill-rule="evenodd" sketch:type="MSPage">
        <g id="Praha" sketch:type="MSLayerGroup" transform="translate(1.000000, 1.000000)">
            <g id="praha-10" transform="translate(118.000000, 76.000000)">
                <path d="M-0.36328125,15.8925781 L4.14160156,9.85546875 L18.8955078,9.7890625 L34.4296875,0.333984375 L51.3652344,0.333984375 L51.3652344,5.00195312 L75.4003906,19.4189453 L82.6298828,15.2050781 L84.9541016,15.2050781 L88.5908203,24.6083984 L101.020508,29.7109375 L104.689453,42.6308594 L113.807617,45.2460938 L111.886719,53.3574219 L116.131836,59.8388672 L119.552734,57.6230469 L121.692383,59.6865234 L118.576172,64.1923828 L122.484375,80.0322266 L119.532227,84.1904297 L107.905273,84.9716797 L107.394531,93.7988281 L91.6201172,90.9648438 L86.8642578,80.8242188 L79.3613281,78.6533203 L72.6396484,73.0400391 L65.5400391,77.0244141 L58.4394531,72.3447266 L56.0292969,52.4677734 L36.8466797,40.0488281 L27.2275391,40.0488281 L16.9902344,26.4667969 L7.67382812,26.2167969 L-0.36328125,15.8925781 Z" fill="#767772" sketch:type="MSShapeGroup"></path>
                <text id="10" sketch:type="MSTextLayer" font-family="Verdana" font-size="12" font-weight="normal" fill="#FFFFFF">
                    <tspan x="65" y="45">10</tspan>
                </text>
            </g>
            <g id="praha-9" transform="translate(146.000000, 0.000000)">
                <path d="M28.8837891,-0.09375 L19.5361328,9.51464844 L19.2753906,18.7861328 L14.8886719,28.1992188 L0.080078125,44.984375 L4.76953125,53.8876953 L-0.0615234375,63.9960938 L7.39648438,73.8857422 L26.0576172,74.4072266 L26.0576172,79.78125 L48.0302734,92.8183594 L54.2724609,88.5839844 L58.59375,88.5839844 L62.0673828,98.8554688 L75.5185547,104.055664 L79.3291016,117.050781 L86.6894531,119.298828 L87.9921875,112.990234 L122.035156,106.155273 L126.454102,93.5839844 L120.851562,90.8369141 L118.766602,82.9443359 L108.995117,80.9785156 L100.265625,72.8359375 L102.676758,59.9931641 L68.7304688,48.7236328 L64.1171875,36.1738281 L67.0585938,27.3046875 L51.1972656,25.578125 L49.8945312,16.4697266 L33.7832031,11.0957031 L33.8496094,2.05273438 L28.8837891,-0.09375 Z" fill="#767772" sketch:type="MSShapeGroup"></path>
                <text id="9" sketch:type="MSTextLayer" font-family="Verdana" font-size="12" font-weight="normal" fill="#FFFFFF">
                    <tspan x="52" y="69">9</tspan>
                </text>
            </g>
            <g id="praha-8" transform="translate(97.000000, 1.000000)">
                <path d="M0.0146484375,18.6152344 L0.0146484375,24.6621094 L35.2529297,53.0507812 L29.6396484,63.3642578 L20.3681641,65.4589844 L21.4658203,68.7382812 L47.0644531,62.3115234 L51.4824219,53.5615234 L45.9560547,43.8554688 L62.2832031,25.8886719 L65.9306641,17.3886719 L65.9306641,8.03027344 L69.828125,3.46972656 L65.8330078,0.364257812 L53.2509766,1.05859375 L42.2431641,11.2304688 L26.1318359,7.06152344 L0.0146484375,18.6152344 Z" fill="#767772" sketch:type="MSShapeGroup"></path>
                <text id="8" sketch:type="MSTextLayer" font-family="Verdana" font-size="12" font-weight="normal" fill="#FFFFFF">
                    <tspan x="33" y="38">8</tspan>
                </text>
            </g>
            <g id="praha-7" transform="translate(98.000000, 32.000000)">
                <path d="M2.49511719,0.12109375 L-0.155273438,3.55273438 L7.83496094,23.5166016 L2.89550781,30.6376953 L17.671875,32.7226562 L26.9433594,31.0615234 L31.7197266,22.7880859 L2.49511719,0.12109375 Z" fill="#767772" sketch:type="MSShapeGroup"></path>
                <text id="7" sketch:type="MSTextLayer" font-family="Verdana" font-size="12" font-weight="normal" fill="#FFFFFF">
                    <tspan x="12" y="27">7</tspan>
                </text>
            </g>
            <g id="praha-6" transform="translate(0.000000, 13.000000)">
                <path d="M40.3574219,11.2226563 L46.7421875,11.2226563 L53.4941406,25.9667969 L75.5742188,25.8144531 L76.7695312,5.296875 L87.1240234,0.204101562 L94.4853516,5.24121094 L94.4853516,13.9912109 L98.4697266,17.1943359 L95.3535156,22.6650391 L103.40918,43.2060547 L98.4697266,49.6982422 L88.1455078,48.8408203 L85.2900391,54.4433594 L88.5683594,59.6542969 L49.171875,59.8828125 L43.8955078,68.7861328 L32.4736328,69.5566406 L26.3945312,59.1669922 L28.1865234,58.9169922 L28.1865234,51.3164062 L12.6728516,42.4794922 L10.2304688,28.6923828 L-0.159179688,26.5419922 L2.76171875,22.1445312 L17.8623047,21.8837891 L21.0761719,17.8017578 L26.3525391,21.5917969 L34.1367188,21.5917969 L40.3574219,11.2226563 Z" fill="#767772" sketch:type="MSShapeGroup"></path>
                <text id="6" sketch:type="MSTextLayer" font-family="Verdana" font-size="12" font-weight="normal" fill="#FFFFFF">
                    <tspan x="54" y="47">6</tspan>
                </text>
            </g>
            <g id="praha-5" transform="translate(3.000000, 72.000000)">
                <path d="M7.49414062,0.615234375 L20.1416016,0.0185546875 L27.7529297,13.1552734 L41.2900391,13.0791016 L46.7617188,3.9609375 L92.4667969,3.43945313 L94.6376953,7.76074219 L88.5478516,37.1914062 L76.8232422,55.3105469 L76.8232422,93.9462891 L72.8496094,99.2021484 L75.4658203,105.802734 L73.1523438,105.802734 L67.8759766,125.376953 L56.2910156,117.832031 L50.9824219,118.092773 L50.2119141,121.294922 L36.6083984,118.255859 L31.8525391,108.973633 L34.9580078,104.75 L45.1855469,105.270508 L40.8427734,77.7509766 L28.4453125,78.2617188 L20.8125,68.2080078 L32.9296875,55.5605469 L32.9296875,45.5078125 L18.6972656,43.4228516 L9.41503906,34.4882812 L9.93554688,16.9873047 L0.0458984375,9.10546875 L7.49414062,0.615234375 Z" fill="#767772" sketch:type="MSShapeGroup"></path>
                <text id="5" sketch:type="MSTextLayer" font-family="Verdana" font-size="12" font-weight="normal" fill="#FFFFFF">
                    <tspan x="54" y="42">5</tspan>
                </text>
            </g>
            <g id="praha-4" transform="translate(78.000000, 93.000000)">
                <path d="M19.7988281,0.333984375 L36.6816406,0.528320312 L46.1923828,11.0917969 L55.8662109,11.5263672 L65.4091797,25.4765625 L76.2646484,25.2373047 L93.7109375,37.2880859 L96.4023438,55.8525391 L94.0791016,58.3603516 L80.0625,54.0175781 L75.8173828,60.6738281 L75.8173828,67.7734375 L51.0107422,68.8925781 L51.0107422,73.4736328 L37.6787109,84.0478516 L22.2412109,85.6113281 L11.9697266,90.7138672 L2.83789062,84.0039062 L0.25390625,78.9980469 L4.07519531,73.2109375 L4.16113281,35.3769531 L16.3857422,17.3242188 L19.7988281,0.333984375 Z" fill="#767772" sketch:type="MSShapeGroup"></path>
                <text id="4" sketch:type="MSTextLayer" font-family="Verdana" font-size="12" font-weight="normal" fill="#FFFFFF">
                    <tspan x="37" y="51">4</tspan>
                </text>
            </g>
            <g id="praha-3" transform="translate(117.000000, 66.000000)">
                <path d="M0.052734375,8.2890625 L1.59472656,5.98632812 L27.0195312,-0.321289062 L33.6513672,8.796875 L19.4082031,16.7871094 L5.70800781,16.7871094 L5.01367188,12.2919922 L0.052734375,8.2890625 Z" fill="#767772" sketch:type="MSShapeGroup"></path>
                <text id="3" sketch:type="MSTextLayer" font-family="Verdana" font-size="12" font-weight="normal" fill="#FFFFFF">
                    <tspan x="14" y="13">3</tspan>
                </text>
            </g>
            <g id="praha-2" transform="translate(98.000000, 75.000000)">
                <path d="M2.22753906,5.68457031 L-0.0966796875,15.0214844 L16.6992188,15.9453125 L21.9541016,9.46386719 L22.2041016,4.84765625 L17.5361328,0.4609375 L14.2011719,4.5 L2.22753906,5.68457031 Z" fill="#767772" sketch:type="MSShapeGroup"></path>
                <text id="2" sketch:type="MSTextLayer" font-family="Verdana" font-size="12" font-weight="normal" fill="#FFFFFF">
                    <tspan x="10" y="14">2</tspan>
                </text>
            </g>
            <g id="praha-1" transform="translate(88.000000, 64.000000)">
                <path d="M1.30810547,0.301269531 L26.5361328,3.22558594 L28.359375,6.60253906 L24.1357422,12.3994141 L12.7900391,13.6054688 L9.76171875,9.13085938 L3.37695312,9.13085938 L-0.009765625,3.50683594 L1.30810547,0.301269531 Z" fill="#767772" sketch:type="MSShapeGroup"></path>
                <text id="1" sketch:type="MSTextLayer" font-family="Verdana" font-size="12" font-weight="normal" fill="#FFFFFF">
                    <tspan x="12" y="12">1</tspan>
                </text>
            </g>
        </g>
    </g>
</svg>